<svg width="2405" height="2433" viewBox="0 0 2405 2433" fill="none" xmlns="http://www.w3.org/2000/svg">
<path d="M1424.87 1596.26V727.043C1444.22 733.874 1464.71 737.289 1486.34 737.289H1794.86C1903.02 737.289 1991.25 649.059 1991.25 540.906V232.384C1991.25 123.661 1903.02 36 1794.86 36H1486.34C1377.62 36 1289.96 123.661 1289.96 232.384V540.906C1289.96 540.906 1289.96 541.475 1289.96 542.044V2397.16H1299.07C1321.27 2354.47 1346.88 2313.48 1375.91 2274.21C1391.85 2252.01 1408.36 2229.81 1424.87 2208.18L1991.25 1596.26C2144.37 1430.61 2668.63 1708.96 2134.12 1331.56C1599.62 954.166 1424.87 1596.26 1424.87 1596.26ZM1424.87 291.584C1424.87 224.984 1478.94 170.907 1545.54 170.907H1735.66C1802.26 170.907 1855.77 224.984 1855.77 291.584V481.706C1855.77 548.306 1802.26 601.813 1735.66 601.813H1545.54C1478.94 601.813 1424.87 548.306 1424.87 481.706V291.584Z" stroke="#F38246" stroke-width="71.0282" stroke-miterlimit="10"/>
<path d="M271.038 1331.56C-263.468 1708.96 260.222 1430.61 413.914 1596.26L980.296 2208.18C996.804 2229.81 1013.31 2252.01 1029.25 2274.21C1058.28 2313.48 1083.9 2354.47 1106.1 2397.16H1115.2V542.044V540.906V232.384C1115.2 123.661 1027.54 36 918.82 36H610.298C502.145 36 413.914 123.661 413.914 232.384V540.906C413.914 649.059 502.145 737.289 610.298 737.289H918.82C940.45 737.289 960.943 733.874 980.296 727.043V1596.26C980.296 1596.26 805.543 954.735 271.038 1331.56ZM980.296 481.706C980.296 548.306 926.22 601.813 859.62 601.813H669.498C602.898 601.813 549.391 548.306 549.391 481.706V291.584C549.391 224.984 602.898 170.907 669.498 170.907H859.62C926.22 170.907 980.296 224.984 980.296 291.584V481.706Z" stroke="#F38246" stroke-width="71.0282" stroke-miterlimit="10"/>
</svg>
